<mxfile host="app.diagrams.net" modified="2023-11-10T02:11:47.357Z" agent="Mozilla/5.0 (Windows NT 10.0; Win64; x64) AppleWebKit/537.36 (KHTML, like Gecko) Chrome/119.0.0.0 Safari/537.36" etag="YZR3CKCFXdhT0InyDEyo" version="22.1.0" type="device">
  <diagram id="C5RBs43oDa-KdzZeNtuy" name="Page-1">
    <mxGraphModel dx="2442" dy="1348" grid="1" gridSize="10" guides="1" tooltips="1" connect="1" arrows="1" fold="1" page="1" pageScale="1" pageWidth="827" pageHeight="1169" math="0" shadow="0">
      <root>
        <mxCell id="WIyWlLk6GJQsqaUBKTNV-0" />
        <mxCell id="WIyWlLk6GJQsqaUBKTNV-1" parent="WIyWlLk6GJQsqaUBKTNV-0" />
        <mxCell id="myCb-vy8fJ_TnoKXcyD--12" style="edgeStyle=orthogonalEdgeStyle;rounded=0;orthogonalLoop=1;jettySize=auto;html=1;exitX=1;exitY=0.5;exitDx=0;exitDy=0;exitPerimeter=0;entryX=0.642;entryY=-0.046;entryDx=0;entryDy=0;entryPerimeter=0;" edge="1" parent="WIyWlLk6GJQsqaUBKTNV-1" source="myCb-vy8fJ_TnoKXcyD--0" target="myCb-vy8fJ_TnoKXcyD--11">
          <mxGeometry relative="1" as="geometry">
            <mxPoint x="580" y="50" as="targetPoint" />
          </mxGeometry>
        </mxCell>
        <mxCell id="myCb-vy8fJ_TnoKXcyD--0" value="start" style="strokeWidth=2;html=1;shape=mxgraph.flowchart.start_1;whiteSpace=wrap;" vertex="1" parent="WIyWlLk6GJQsqaUBKTNV-1">
          <mxGeometry x="345" y="10" width="130" height="80" as="geometry" />
        </mxCell>
        <mxCell id="myCb-vy8fJ_TnoKXcyD--1" value="end" style="strokeWidth=2;html=1;shape=mxgraph.flowchart.terminator;whiteSpace=wrap;" vertex="1" parent="WIyWlLk6GJQsqaUBKTNV-1">
          <mxGeometry x="330" y="860" width="140" height="80" as="geometry" />
        </mxCell>
        <mxCell id="myCb-vy8fJ_TnoKXcyD--22" style="edgeStyle=orthogonalEdgeStyle;rounded=0;orthogonalLoop=1;jettySize=auto;html=1;exitX=0.5;exitY=1;exitDx=0;exitDy=0;entryX=0.5;entryY=0;entryDx=0;entryDy=0;" edge="1" parent="WIyWlLk6GJQsqaUBKTNV-1" source="myCb-vy8fJ_TnoKXcyD--2" target="myCb-vy8fJ_TnoKXcyD--20">
          <mxGeometry relative="1" as="geometry" />
        </mxCell>
        <mxCell id="myCb-vy8fJ_TnoKXcyD--2" value="Input &quot;n&quot;&lt;br&gt;&lt;div&gt;Initialize Vector&lt;span style=&quot;background-color: initial;&quot;&gt;&amp;nbsp; &quot;a&quot;&lt;/span&gt;&lt;/div&gt;" style="shape=parallelogram;html=1;strokeWidth=2;perimeter=parallelogramPerimeter;whiteSpace=wrap;rounded=1;arcSize=12;size=0.23;" vertex="1" parent="WIyWlLk6GJQsqaUBKTNV-1">
          <mxGeometry x="180" y="110" width="150" height="80" as="geometry" />
        </mxCell>
        <mxCell id="myCb-vy8fJ_TnoKXcyD--3" value="Output Result" style="shape=parallelogram;html=1;strokeWidth=2;perimeter=parallelogramPerimeter;whiteSpace=wrap;rounded=1;arcSize=12;size=0.23;" vertex="1" parent="WIyWlLk6GJQsqaUBKTNV-1">
          <mxGeometry x="325" y="730" width="150" height="90" as="geometry" />
        </mxCell>
        <mxCell id="myCb-vy8fJ_TnoKXcyD--6" style="edgeStyle=orthogonalEdgeStyle;rounded=0;orthogonalLoop=1;jettySize=auto;html=1;entryX=0.569;entryY=0.038;entryDx=0;entryDy=0;entryPerimeter=0;" edge="1" parent="WIyWlLk6GJQsqaUBKTNV-1" source="myCb-vy8fJ_TnoKXcyD--0" target="myCb-vy8fJ_TnoKXcyD--2">
          <mxGeometry relative="1" as="geometry">
            <Array as="points">
              <mxPoint x="265" y="50" />
            </Array>
          </mxGeometry>
        </mxCell>
        <mxCell id="myCb-vy8fJ_TnoKXcyD--10" style="edgeStyle=orthogonalEdgeStyle;rounded=0;orthogonalLoop=1;jettySize=auto;html=1;entryX=0.5;entryY=0;entryDx=0;entryDy=0;entryPerimeter=0;" edge="1" parent="WIyWlLk6GJQsqaUBKTNV-1" source="myCb-vy8fJ_TnoKXcyD--3" target="myCb-vy8fJ_TnoKXcyD--1">
          <mxGeometry relative="1" as="geometry" />
        </mxCell>
        <mxCell id="myCb-vy8fJ_TnoKXcyD--24" style="edgeStyle=orthogonalEdgeStyle;rounded=0;orthogonalLoop=1;jettySize=auto;html=1;exitX=0.5;exitY=1;exitDx=0;exitDy=0;entryX=0.5;entryY=0;entryDx=0;entryDy=0;" edge="1" parent="WIyWlLk6GJQsqaUBKTNV-1" source="myCb-vy8fJ_TnoKXcyD--11" target="myCb-vy8fJ_TnoKXcyD--23">
          <mxGeometry relative="1" as="geometry" />
        </mxCell>
        <mxCell id="myCb-vy8fJ_TnoKXcyD--11" value="Input Loop (n)&lt;br&gt;&lt;div&gt;Initialize Vector&amp;nbsp;&lt;span style=&quot;background-color: initial;&quot;&gt;&amp;nbsp;&quot;dp&quot;&amp;nbsp;&lt;/span&gt;&lt;/div&gt;" style="shape=parallelogram;html=1;strokeWidth=2;perimeter=parallelogramPerimeter;whiteSpace=wrap;rounded=1;arcSize=12;size=0.23;" vertex="1" parent="WIyWlLk6GJQsqaUBKTNV-1">
          <mxGeometry x="477" y="122" width="150" height="80" as="geometry" />
        </mxCell>
        <mxCell id="myCb-vy8fJ_TnoKXcyD--31" style="edgeStyle=orthogonalEdgeStyle;rounded=0;orthogonalLoop=1;jettySize=auto;html=1;exitX=0.5;exitY=1;exitDx=0;exitDy=0;exitPerimeter=0;entryX=0.5;entryY=0;entryDx=0;entryDy=0;" edge="1" parent="WIyWlLk6GJQsqaUBKTNV-1" source="myCb-vy8fJ_TnoKXcyD--13" target="myCb-vy8fJ_TnoKXcyD--19">
          <mxGeometry relative="1" as="geometry" />
        </mxCell>
        <mxCell id="myCb-vy8fJ_TnoKXcyD--13" value="&lt;div&gt;&amp;nbsp;DP Loop 1 (i: 1 to n)&lt;br&gt;DP Loop 2 (j: 0 to i)&lt;br&gt;&lt;/div&gt;" style="strokeWidth=2;html=1;shape=mxgraph.flowchart.decision;whiteSpace=wrap;" vertex="1" parent="WIyWlLk6GJQsqaUBKTNV-1">
          <mxGeometry x="337" y="350" width="140" height="140" as="geometry" />
        </mxCell>
        <mxCell id="myCb-vy8fJ_TnoKXcyD--32" style="edgeStyle=orthogonalEdgeStyle;rounded=0;orthogonalLoop=1;jettySize=auto;html=1;exitX=0.5;exitY=1;exitDx=0;exitDy=0;entryX=0.5;entryY=0;entryDx=0;entryDy=0;" edge="1" parent="WIyWlLk6GJQsqaUBKTNV-1" source="myCb-vy8fJ_TnoKXcyD--19" target="myCb-vy8fJ_TnoKXcyD--3">
          <mxGeometry relative="1" as="geometry" />
        </mxCell>
        <mxCell id="myCb-vy8fJ_TnoKXcyD--19" value="Condition Check&lt;br&gt;&lt;div&gt;|&amp;nbsp; &amp;nbsp;Update DP (True)&amp;nbsp;|&lt;br&gt;Find Maximum Length&lt;br&gt;&lt;/div&gt;&lt;div&gt;&lt;br&gt;&lt;/div&gt;" style="rounded=1;whiteSpace=wrap;html=1;absoluteArcSize=1;arcSize=14;strokeWidth=2;" vertex="1" parent="WIyWlLk6GJQsqaUBKTNV-1">
          <mxGeometry x="317" y="530" width="180" height="110" as="geometry" />
        </mxCell>
        <mxCell id="myCb-vy8fJ_TnoKXcyD--20" value="Initialize Vector&amp;nbsp; &quot;a&quot;" style="rounded=1;whiteSpace=wrap;html=1;absoluteArcSize=1;arcSize=14;strokeWidth=2;" vertex="1" parent="WIyWlLk6GJQsqaUBKTNV-1">
          <mxGeometry x="199" y="210" width="95" height="100" as="geometry" />
        </mxCell>
        <mxCell id="myCb-vy8fJ_TnoKXcyD--28" style="edgeStyle=orthogonalEdgeStyle;rounded=0;orthogonalLoop=1;jettySize=auto;html=1;exitX=0;exitY=0.5;exitDx=0;exitDy=0;" edge="1" parent="WIyWlLk6GJQsqaUBKTNV-1" source="myCb-vy8fJ_TnoKXcyD--23">
          <mxGeometry relative="1" as="geometry">
            <mxPoint x="501.7142857142858" y="269.8571428571429" as="targetPoint" />
          </mxGeometry>
        </mxCell>
        <mxCell id="myCb-vy8fJ_TnoKXcyD--23" value="Initialize Vector&amp;nbsp;&amp;nbsp;&quot;dp&quot;&amp;nbsp;" style="rounded=1;whiteSpace=wrap;html=1;absoluteArcSize=1;arcSize=14;strokeWidth=2;" vertex="1" parent="WIyWlLk6GJQsqaUBKTNV-1">
          <mxGeometry x="502" y="220" width="100" height="100" as="geometry" />
        </mxCell>
        <mxCell id="myCb-vy8fJ_TnoKXcyD--29" style="edgeStyle=orthogonalEdgeStyle;rounded=0;orthogonalLoop=1;jettySize=auto;html=1;exitX=1;exitY=0.5;exitDx=0;exitDy=0;entryX=0.5;entryY=0;entryDx=0;entryDy=0;entryPerimeter=0;" edge="1" parent="WIyWlLk6GJQsqaUBKTNV-1" source="myCb-vy8fJ_TnoKXcyD--20" target="myCb-vy8fJ_TnoKXcyD--13">
          <mxGeometry relative="1" as="geometry" />
        </mxCell>
        <mxCell id="myCb-vy8fJ_TnoKXcyD--30" style="edgeStyle=orthogonalEdgeStyle;rounded=0;orthogonalLoop=1;jettySize=auto;html=1;exitX=0;exitY=0.5;exitDx=0;exitDy=0;" edge="1" parent="WIyWlLk6GJQsqaUBKTNV-1">
          <mxGeometry relative="1" as="geometry">
            <mxPoint x="502" y="260" as="sourcePoint" />
            <mxPoint x="407" y="350" as="targetPoint" />
          </mxGeometry>
        </mxCell>
      </root>
    </mxGraphModel>
  </diagram>
</mxfile>
